<svg width="192" height="192" viewBox="0 0 105 105" xmlns="http://www.w3.org/2000/svg">
 <g transform="translate(-42.301 -99.134)">
  <g fill-rule="evenodd" stroke="#001d00" stroke-linecap="round">
   <path d="m51.5 126.63 43.301-25v50z" fill="#0ff" stop-color="#000000"/>
   <path d="m94.801 151.63 43.301-25-43.301-25z" fill="#ffa8ff" stop-color="#000000"/>
   <path d="m51.5 176.63 43.301-25-43.301-25z" fill="#ffa8ff" stop-color="#000000"/>
   <path d="m51.5 176.63 43.301-25v50z" fill="#0ff" stop-color="#000000"/>
   <path d="m94.801 151.63 43.301-25v50z" fill="#0ff" stop-color="#000000"/>
   <path d="m94.801 201.63 43.301-25-43.301-25z" fill="#ffa8ff" stop-color="#000000"/>
  </g>
  <path d="m82.644 137.08c-0.41081-0.032-1.0336-0.20085-1.3777-0.37357-0.23341-0.11716-0.62347-0.35951-0.83549-0.51907l-0.18199-0.13697-0.20736-0.23766c-0.11405-0.13072-0.24463-0.28761-0.29019-0.34864l-0.08282-0.11097-0.9173 9e-4 -0.9173 2e-3 -0.26194 0.0632c-0.14406 0.0347-0.37981 0.081-0.52388 0.10287l-0.26194 0.0397-0.71438-5.4e-4 -0.23967-0.0498c-0.59648-0.12389-0.99839-0.31243-1.4748-0.69183-0.09168-0.073-0.24342-0.18413-0.3372-0.24693-0.09378-0.0628-0.25033-0.19774-0.34789-0.29985l-0.17738-0.18566-0.07509-0.15259c-0.0413-0.0839-0.0851-0.21421-0.09735-0.28951l-0.02226-0.13693 0.02218-0.13691c0.0122-0.0753 0.05785-0.20658 0.10145-0.29171l0.07927-0.15477-0.06242-0.59532 0.01321-0.1905c0.028-0.40362 0.11888-0.75176 0.28428-1.0891 0.03684-0.0751 0.0852-0.15308 0.10749-0.17324l0.04052-0.0366 0.0246 0.0303c0.01353 0.0167 0.07465 0.15894 0.13582 0.31611 0.10518 0.27025 0.30089 0.66239 0.34382 0.68892 0.01084 6e-3 0.02614-0.0567 0.034-0.14094l0.0143-0.15312 0.11133-0.26887c0.06123-0.14787 0.14267-0.34886 0.18097-0.44663 0.08529-0.21772 0.22873-0.45879 0.26575-0.44664 0.01503 5e-3 0.04982 0.0939 0.07733 0.19763 0.05555 0.20963 0.12367 0.35776 0.19364 0.42102l0.0463 0.0419 0.0867-0.0958 0.05484-0.26562c0.03016-0.14609 0.04964-0.27401 0.04331-0.28428-0.0064-0.0103 0.0122-0.0994 0.04123-0.19803 0.02903-0.0986 0.04572-0.18639 0.0371-0.19501-0.0086-9e-3 -0.10226 0.0114-0.20809 0.0445l-0.19243 0.0602-0.14374-0.121-0.15558-0.32402c-0.08557-0.17821-0.15828-0.32687-0.16158-0.33036-0.01119-0.0118-0.70733 0.20281-0.7256 0.22371-0.01 0.0114-0.0074 0.19548 0.0058 0.40902l0.02399 0.38826-0.04566 0.0455-0.04565 0.0454-0.2331 0.0619c-0.12821 0.034-0.26153 0.0586-0.29628 0.0545l-0.06318-7e-3 -0.01745-0.0715c-0.0096-0.0392-0.04015-0.68753-0.06789-1.4406-0.02774-0.75308-0.06053-1.546-0.07288-1.7621s-0.0226-0.42667-0.02278-0.46795l-3.33e-4 -0.0751 0.08636-0.0509c0.0475-0.028 0.09539-0.0478 0.10642-0.044 0.01103 4e-3 0.04985 0.0652 0.08627 0.1363l0.06622 0.12936 0.16594 0.0866h0.29519l0.01174 0.0417c0.0065 0.0229 0.01845 0.0751 0.02665 0.11607 0.0082 0.041 0.0421 0.0999 0.07532 0.13097l0.06041 0.0565 0.34575-6e-3 0.21088 0.41359c0.11598 0.22748 0.21878 0.4136 0.22842 0.4136 0.0096 0 0.02416-0.0107 0.03226-0.0239 0.02954-0.0478 0.05355-0.0216 0.0661 0.072 0.0071 0.0526 0.04866 0.17004 0.09243 0.2608l0.07959 0.16502 0.0038-0.33516 0.03385-0.0218c0.01861-0.012 0.04991-0.0188 0.06956-0.0151l0.03572 6e-3 -0.0158 0.57008 0.04724 0.0953c0.02598 0.0524 0.10897 0.22183 0.18443 0.37656l0.13719 0.2813 0.0869 0.0444c0.0478 0.0244 0.0984 0.0692 0.11245 0.0997l0.02555 0.0554 0.01625-0.0715c0.0089-0.0393 0.02455-0.0929 0.03469-0.11907l0.01844-0.0476-0.03099-0.13096c-0.01705-0.072-0.0314-0.15776-0.0319-0.19051-9.9e-4 -0.0635 0.08752-0.22887 0.11031-0.20609 0.0075 7e-3 0.01787 0.18705 0.0231 0.39904l0.0095 0.38544-0.07908 0.0874 0.05485 0.0444 0.05484 0.0444-0.0142 0.037-0.01419 0.037-0.29962 0.0646-0.05388 0.0951c-0.02964 0.0523-0.05406 0.11347-0.05428 0.13586l-3.78e-4 0.0407 0.0893 0.0263c0.04911 0.0145 0.17502 0.023 0.2798 0.0188l0.1905-7e-3 0.01455-0.78581c8e-3 -0.43219 0.01605-0.78964 0.01786-0.79431 0.0018-5e-3 0.01938-3e-3 0.03902 5e-3 0.01965 7e-3 0.03572 3e-3 0.03572-0.0101 0-0.013-0.01607-0.03-0.03572-0.0375l-0.03572-0.0137 0.0014-0.32488 0.0014-0.32487 0.11789 0.29765c0.06484 0.16371 0.12762 0.3324 0.13952 0.37486l0.02164 0.0772-0.02391 0.0148c-0.01316 8e-3 -0.03585 3e-3 -0.05042-0.0117-0.04202-0.042-0.06858-0.0308-0.04249 0.0179 0.01309 0.0245 0.04108 0.12893 0.06222 0.23217 0.02114 0.10325 0.0474 0.197 0.05837 0.20833l0.01993 0.0206 0.03836-0.0742c0.0211-0.0408 0.04753-0.0742 0.05874-0.0742s0.11415 0.23842 0.22874 0.52983c0.1146 0.2914 0.22248 0.56465 0.23972 0.60722l0.03136 0.0774h0.1887l0.06555-0.0774c0.03604-0.0426 0.09653-0.14544 0.1344-0.22861l0.06886-0.15122-0.03109-0.0421c-0.0171-0.0232-0.0766-0.098-0.13223-0.16635l-0.10114-0.12423 0.01469-0.0635c0.02056-0.0887 0.08645-0.20037 0.12612-0.21359l0.03334-0.0111-0.02087 0.0449c-0.01148 0.0247-0.02093 0.0906-0.02102 0.14636l-2.35e-4 0.10145 0.08271 0.0814c0.04549 0.0447 0.10949 0.0848 0.14224 0.0891l0.05953 8e-3 0.01538-0.1786c0.0085-0.0982 0.01995-0.24682 0.02553-0.33021l0.01015-0.15161-0.03149 0.043-0.03149 0.0431v-0.60898l-0.04409-0.0632c-0.02425-0.0347-0.08979-0.15171-0.14564-0.25988l-0.10155-0.19668 0.02659-0.10557c0.06103-0.24238 0.04865-0.29364-0.18855-0.78113l-0.13621-0.27993-0.01494 0.57759c-0.0082 0.31767-0.01121 0.74683-0.0067 0.95368 0.0046 0.20686 0 0.36759-0.01009 0.35719-0.03484-0.0358-0.61041-1.5113-0.71102-1.8227l-0.02885-0.0893h-0.68555l0.01335 0.0774c0.0074 0.0426 0.03453 0.13224 0.06043 0.19926l0.04708 0.12188 0.05804 0.0265c0.03192 0.0146 0.05804 0.0448 0.05804 0.0673s-0.04822 0.13426-0.10716 0.24837l-0.10716 0.20747v0.14139c0 0.0778-0.0069 0.23852-0.01532 0.35723l-0.01532 0.21584-0.1216-0.20026c-0.06688-0.11014-0.17786-0.25873-0.24662-0.33021l-0.12502-0.12996v-0.0868c0-0.0912 0.06203-0.24871 0.09796-0.24871 0.01161 0 0.0211 0.0161 0.0211 0.0357s0.02143 0.0572 0.04763 0.0833l0.04763 0.0476v0.0771c0 0.0829 0.0715 0.27981 0.10166 0.27996 0.01007 5e-5 0.01343-0.024 0.0075-0.0535-0.0059-0.0294-0.01664-0.11252-0.02371-0.18455l-0.01286-0.13097 0.10504-0.15081 0.10505-0.15082-0.04598-0.0754c-0.02529-0.0415-0.0461-0.11292-0.04623-0.15876-8.57e-4 -0.29449-0.13586-0.89215-0.21217-0.93931l-0.02568-0.0158-0.05895 0.0636c-0.07277 0.0785-0.14367 0.2659-0.16566 0.43777-0.0091 0.0713-0.02234 0.13893-0.02938 0.15031-0.01696 0.0274-0.11477-0.10511-0.19776-0.268-0.05996-0.11769-0.5251-1.1992-0.55277-1.2853l-0.0113-0.0351-0.08572 0.1542c-0.09439 0.16978-0.1952 0.45928-0.23456 0.67363l-0.02542 0.13844-0.07594 0.0292-0.07459-0.0863c-0.08707-0.10073-0.25714-0.43789-0.33373-0.66161-0.06271-0.18319-0.09892-0.37973-0.14232-0.77256l-0.03156-0.28575-0.05383-0.14288-0.05383-0.14287-0.01071-0.23065-0.01071-0.23067 0.02779-0.15959c0.03787-0.21748 0.10356-0.33669 0.37197-0.67501l0.22974-0.28959-0.0645-0.1528 0.001188-0.61912 0.05517-0.17757c0.1119-0.3602 0.30382-0.66471 0.54493-0.86464 0.24984-0.20716 0.61394-0.36245 0.96608-0.41202l0.11481-0.0162 0.33763-0.3373c1.039-1.038 2.2327-1.6711 3.5761-1.8966l0.28575-0.048 0.93709-0.0294 0.17434-0.21663c0.2356-0.29273 0.83737-0.89457 1.115-1.1151 0.3362-0.26708 0.70503-0.49948 1.1234-0.70788l0.37329-0.18593 0.43634-0.14298c0.23999-0.0787 0.53814-0.16053 0.66256-0.18198 0.12442-0.0214 0.25033-0.0443 0.27979-0.0508l0.05357-0.0117-0.08012 0.12547c-0.04406 0.069-0.11492 0.19452-0.15745 0.27892l-0.07734 0.15345-0.02148 0.2646 0.04711 0.0746c0.12554 0.1989 0.3025 0.25709 0.90491 0.29752 0.23112 0.0155 0.42329 0.0305 0.42704 0.0333 0.0038 3e-3 -0.02156 0.0896-0.05625 0.19272l-0.06308 0.18765 0.01082 0.16669 0.01082 0.16668 0.05039 0.0983c0.08916 0.17392 0.39829 0.3948 0.67746 0.48406 0.04911 0.0157 0.0893 0.0417 0.0893 0.0577s-0.0212 0.12502-0.04711 0.24223-0.04734 0.28984-0.04763 0.38363l-5.4e-4 0.17052 0.08962 0.28796 0.10731 0.14984c0.25554 0.35967 0.63171 0.36692 0.4314 0.75788l-0.11548 0.2254-4.5e-4 0.26194-4.5e-4 0.26193 0.06328 0.13498c0.09518 0.20304 0.25058 0.42066 0.40858 0.57217l0.14144 0.13564-0.01379 0.0359c-0.0076 0.0198-0.05506 0.057-0.1055 0.0827-0.19342 0.0987-0.33298 0.30175-0.39858 0.57999l-0.03519 0.14928-3.6e-4 0.24689-3.6e-4 0.24688 0.09688 0.21745c0.13431 0.3015 0.42868 0.8287 0.56956 1.02 0.06465 0.0878 0.15027 0.17658 0.19028 0.19727l0.07275 0.0376 0.08975-0.0241 0.08974-0.0242 0.07277-0.0778c0.12296-0.13154 0.16296-0.20514 0.36589-0.67317 0.38647-0.89138 0.54054-1.176 0.88276-1.6306 0.50498-0.67083 1.1208-1.1542 1.844-1.4475 0.29482-0.11955 0.38858-0.14479 0.64673-0.17413l0.20425-0.0232 0.0329 0.0273c0.0181 0.015 0.03289 0.0554 0.03286 0.0899 0 0.0725-0.03028 0.13179-0.22918 0.44903-0.26671 0.42538-0.37409 0.68605-0.4682 1.1366l-0.04993 0.23906-0.0031 0.79773-0.0031 0.79771-0.05271 0.30956-0.05271 0.30957-0.15208 0.46597c-0.15461 0.47372-0.35231 0.93605-0.5171 1.2093-0.05017 0.0832-0.09123 0.15464-0.09123 0.15877 0 4e-3 0.04846 0.0895 0.10768 0.18964 0.1758 0.29735 0.29588 0.55063 0.44049 0.92908 0.14531 0.38026 0.21311 0.62379 0.27515 0.9882l0.0385 0.22619 0.0049 0.75012 0.0049 0.75011 0.04243 0.1905c0.08549 0.38384 0.19961 0.64868 0.4781 1.1094l0.13542 0.22406 0.0082 0.1904-0.33337 0.014-0.20241-0.0399c-0.49834-0.0984-1.0682-0.35685-1.4881-0.6752-0.1935-0.1467-0.53988-0.48233-0.67792-0.6569-0.31761-0.40162-0.71958-1.0972-0.97692-1.6905l-0.08256-0.19034-0.10919-0.11327-0.10919-0.11328h-0.16038l-0.11309 0.11732c-0.12936 0.13421-0.31198 0.43346-0.36866 0.60411l-0.03853 0.11601 0.09163 0.13492c0.0504 0.0742 0.17621 0.22403 0.27959 0.33293l0.18796 0.19802-0.01365 0.13536c-0.01714 0.1699-0.09324 0.35179-0.385 0.92022-0.35676 0.69505-0.41597 0.91224-0.41683 1.5291l-4.5e-4 0.33748-0.07739 0.0246c-0.04256 0.0135-0.1524 0.0315-0.24408 0.0401l-0.16669 0.0155-0.22622-0.0273c-0.30546-0.0369-0.50425-0.0987-0.85688-0.26674l-0.29729-0.14163-0.05035 0.0269c-0.02769 0.0148-0.14014 0.12431-0.24988 0.24329l-0.19953 0.21636 0.03502 0.0117c0.01926 6e-3 0.19584 0.0931 0.39238 0.19251 0.58588 0.29645 0.78711 0.45233 0.9878 0.76518l0.12262 0.19115 0.12905 0.34716c0.14991 0.40331 0.2456 0.58383 0.43639 0.82331 0.15298 0.19202 0.32366 0.34514 0.53888 0.48347 0.27153 0.17451 0.32097 0.24667 0.22718 0.33155l-0.04666 0.0422-0.49009 0.0948-1.0342 0.0238-0.24489-0.028c-0.33408-0.0383-0.73026-0.12855-1.1118-0.25345l-0.3192-0.10449-0.24967-0.13214c-0.60504-0.32024-1.1058-0.73535-1.5268-1.2656l-0.07914-0.0997-0.13416 0.0606c-0.07379 0.0333-0.20381 0.0904-0.28894 0.12691-0.08513 0.0365-0.19472 0.0836-0.24354 0.10468l-0.08876 0.0383 0.31242 0.31242 0.13752 0.2946 0.06124 0.3572c0.03368 0.19645 0.08114 0.41768 0.10547 0.49162 0.04629 0.14066 0.20746 0.3934 0.39249 0.61548 0.05994 0.0719 0.10898 0.14964 0.10898 0.17264v0.0419l-0.07739-4e-3c-0.04256-2e-3 -0.17383-0.0111-0.2917-0.0203zm4.2083-1.087 0.16016-0.0151-0.13479-0.14544c-0.18089-0.19519-0.40106-0.49471-0.48311-0.65726-0.03685-0.073-0.11744-0.26629-0.17911-0.42957-0.06167-0.16327-0.14467-0.3587-0.18444-0.43428l-0.07232-0.13741-0.16385-0.15457-0.16385-0.15457-0.57671-0.2811c-0.31719-0.15461-0.70234-0.3526-0.85588-0.43999-0.32104-0.18271-0.91705-0.56034-1.0484-0.66426-0.17017-0.13465-0.08809-0.0254 0.16669 0.22186 0.50889 0.49388 0.97707 0.83193 1.8514 1.3368l0.28575 0.16501-0.08334-0.017c-0.53398-0.10874-1.1648-0.3933-1.6609-0.7492-0.10805-0.0775-0.19645-0.13529-0.19645-0.12838 0 0.0328 0.2918 0.33689 0.49707 0.51806 0.27944 0.24665 0.45467 0.37998 0.82549 0.62812 0.27916 0.18681 0.98844 0.6012 1.029 0.6012 0.01131 0 0.04122 0.0151 0.06646 0.0336l0.04587 0.0336-0.0949-0.018c-0.80032-0.15201-1.8723-0.7735-2.5373-1.4711l-0.22208-0.23295 0.04847 0.0833c0.0981 0.16867 0.3586 0.52543 0.52618 0.72062 0.36197 0.42161 0.89185 0.84329 1.5184 1.2083l0.33338 0.19424-0.08334-0.0169c-0.04584-9e-3 -0.1905-0.0539-0.32147-0.0991-0.9463-0.32682-1.7731-1.016-2.4026-2.0025-0.20906-0.32767-0.41919-0.81483-0.41919-0.97186v-0.0534l0.33207-0.1048 0.09672-0.0828c0.08956-0.0767 0.19033-0.2314 0.19033-0.29225 0-0.0143-0.03934-0.0424-0.08743-0.0625l-0.08743-0.0365 0.03271-0.0203c0.01799-0.0111 0.0868-0.0275 0.15291-0.0365 0.15179-0.0206 0.40422-0.12015 0.67214-0.26501l0.20838-0.11266 0.17398-0.16527c0.30172-0.2866 0.56454-0.75289 0.65962-1.1703l0.01627-0.0715-0.12212 0.18496c-0.43617 0.66059-1.0709 1.0597-1.805 1.135l-0.23475 0.0241-0.27186-0.0236c-0.14952-0.013-0.304-0.0323-0.34329-0.043l-0.07143-0.0194 0.1905-0.0408c0.46367-0.0991 0.78486-0.22525 1.1761-0.46172l0.22356-0.13513 0.18234-0.17929c0.31363-0.30841 0.58628-0.77878 0.85934-1.4825l0.1411-0.36364 3.6e-4 0.0952c2.7e-4 0.0755-0.10944 0.5991-0.17963 0.85725l-0.01295 0.0476 0.04954-0.0595c0.02725-0.0328 0.10785-0.17472 0.17912-0.31551l0.12957-0.25599 0.11744-0.36314c0.12032-0.37207 0.173-0.62625 0.22082-1.0656l0.02722-0.25003-0.01476-0.40481c-0.01479-0.40547-0.05166-0.72539-0.12214-1.0596-0.04134-0.19603-0.21196-0.75626-0.30461-1.0001-0.22626-0.59555-0.65453-1.4207-1.0237-1.9724-0.06425-0.096-0.11151-0.17989-0.10502-0.18638 0.0202-0.0203 0.45094 0.42508 0.61545 0.63625 0.46918 0.60224 0.83278 1.2842 1.0889 2.0422 0.11168 0.3305 0.14642 0.46937 0.219 0.87532l0.05074 0.2838 0.02362 1.1192-0.0506 0.30957c-0.02783 0.17024-0.07742 0.41134-0.1102 0.53577l-0.0596 0.22621-0.02444 0.28575c-0.02732 0.3193-0.07544 0.57896-0.14312 0.77223-0.0249 0.0711-0.04132 0.13324-0.03648 0.13808 0.01491 0.0149 0.2653-0.35493 0.44621-0.65907l0.1718-0.28884 0.07504 0.014v0.42768l-0.06463 0.12527c-0.03555 0.0688-0.09361 0.17473-0.12903 0.23515l-0.0644 0.1099 0.05759-0.0308c0.09666-0.0517 0.33264-0.29028 0.39939-0.40378l0.06302-0.10716-0.0022-0.21431c-0.0012-0.11787-0.01044-0.24906-0.02054-0.29153l-0.01836-0.0772 0.06499-0.22906 0.06498-0.22905-0.01644-0.14617-0.01644-0.14616 0.07538 0.0715c0.07877 0.0746 0.16627 0.22342 0.16627 0.2827 0 0.019 0.13127-0.0965 0.2917-0.25669l0.2917-0.29126 0.21431-0.14376c0.11787-0.0791 0.26789-0.1707 0.33338-0.20361 0.14273-0.0717 0.51714-0.20785 0.80183-0.2915l0.20651-0.0607 0.09766-0.11095c0.05372-0.061 0.12928-0.17613 0.16793-0.25579l0.07026-0.14483 2.7e-4 0.10716c3.6e-4 0.27854-0.08359 0.59816-0.20354 0.77491-0.03281 0.0483-0.05561 0.092-0.05064 0.0969 0.02341 0.0234 0.24579-0.16601 0.32851-0.27983l0.0928-0.12768 0.1243-0.381 0.01201-0.29766 0.01201-0.29765-0.03722-0.1745c-0.04083-0.19149-0.12081-0.38226-0.2347-0.55984l-0.07389-0.11521-0.1545-0.11696c-0.08506-0.0644-0.16392-0.11696-0.17533-0.11696-0.01141 0 0.0016 0.0439 0.02903 0.0976 0.02738 0.0536 0.0456 0.10173 0.04052 0.10682-0.0051 5e-3 -0.06745-0.0278-0.13858-0.0731-0.07114-0.0453-0.16684-0.0993-0.21268-0.11991-0.04584-0.0207-0.1517-0.0715-0.23524-0.11294l-0.1519-0.0753-0.17172-0.16036c-0.26888-0.25111-0.41503-0.48054-0.86974-1.3653-0.73532-1.4307-1.273-2.2123-2.0719-3.012-0.48157-0.48203-1.1441-0.96318-1.7502-1.2711l-0.30959-0.15727-0.40223-0.13145c-0.48594-0.15879-0.96437-0.26154-1.396-0.29976l-0.32112-0.0284-0.39291 0.0139c-0.84141 0.0297-1.6286 0.23215-2.3932 0.61557-0.82725 0.41483-1.5448 1.0067-2.3318 1.9235-0.40977 0.47735-0.90183 1.1508-1.0606 1.4516l-0.03012 0.0571 0.05628-0.0163c0.03095-9e-3 0.18487-0.0446 0.34203-0.0793l0.28575-0.063 0.85725-4e-3 0.19591 0.0423c0.32311 0.0697 0.5806 0.15159 0.87885 0.27935 0.25387 0.10876 0.7469 0.36843 0.7469 0.39337 0 5e-3 -0.12055-0.0343-0.26789-0.0883-0.35947-0.13173-0.7671-0.25054-1.029-0.29991l-0.21517-0.0406-1.0954-4.7e-4 -0.20241 0.0444c-0.36316 0.0796-0.71039 0.23222-0.91798 0.40333-0.08988 0.0741-0.24068 0.26656-0.30218 0.38571-0.03098 0.06-0.09462 0.36933-0.0795 0.38643 0.0026 3e-3 0.04478-0.047 0.09364-0.11106 0.22773-0.29861 0.68168-0.55997 1.1346-0.65322 0.09823-0.0203 0.31938-0.0481 0.49145-0.062l0.31286-0.0253 0.66016 0.0696 0.27384 0.0708c1.6009 0.41411 2.9287 1.5096 4.006 3.3052 0.12436 0.20728 0.37926 0.64477 0.56642 0.97219 0.18717 0.32743 0.40685 0.69805 0.48818 0.82361l0.14787 0.2283 0.10791 0.0902c0.05935 0.0496 0.12014 0.11704 0.13508 0.14983 0.05115 0.11226 0.04639 0.0404-0.0107-0.16142-0.16514-0.5839-0.57198-1.4404-1.0404-2.1902l-0.14132-0.22622 0.12244 0.11907c0.16593 0.16135 0.4789 0.54098 0.6645 0.80604 0.34355 0.49061 0.54798 0.87842 0.7662 1.4536 0.06406 0.16884 0.14409 0.3541 0.17784 0.41169l0.06136 0.10471-0.05538 0.1678-0.05874 0.0223c-0.03231 0.0123-0.1288 0.0223-0.21442 0.0223h-0.15567l-0.23598-0.131-0.03235 0.0435c-0.01778 0.0239-0.07166 0.16857-0.1197 0.32147-0.19792 0.62979-0.23719 0.74179-0.34681 0.98914-0.06306 0.14229-0.18132 0.37804-0.2628 0.52387-0.15745 0.28182-0.455 0.73886-0.49853 0.76577-0.01435 9e-3 -0.05753 0.0595-0.09595 0.11257-0.03843 0.053-0.06987 0.0905-0.06987 0.0832 0-7e-3 0.08053-0.1777 0.17896-0.37862 0.3588-0.73244 0.70438-1.7335 0.85651-2.4811l0.05743-0.28223-0.06229-0.0987c-0.03426-0.0543-0.06564-0.088-0.06974-0.075s-0.06188 0.2166-0.1284 0.45234c-0.37785 1.3389-0.81612 2.2081-1.5609 3.0956-0.32905 0.39212-0.55852 0.61646-0.91465 0.8942-0.55038 0.42923-0.9311 0.64122-1.493 0.83131-0.35288 0.11937-0.65415 0.17987-1.079 0.21666l-0.32124 0.0278-0.26194-0.0146c-0.77117-0.043-1.3364-0.25196-1.7877-0.66097l-0.15541-0.14083-0.05068 0.0314 0.01109 0.11001c0.0061 0.0605 0.03632 0.16359 0.06715 0.22908l0.05606 0.11906 0.12752 0.12538 0.12752 0.12537 0.26645 0.12975c0.42104 0.20503 0.81196 0.29139 1.4214 0.31398l0.36909 0.0137 0.30648-0.0268c0.40639-0.0356 0.71199-0.10012 1.1377-0.24047l0.35174-0.11594 0.79964-0.4057-0.09525 0.0842c-0.12825 0.1133-0.58781 0.43636-0.75009 0.52729-0.21453 0.12023-0.66068 0.29246-0.94059 0.36312-0.41854 0.10566-1.0697 0.15945-1.4764 0.12195-0.11787-0.0109-0.21868-0.0163-0.22402-0.012-0.0209 0.0167 0.31044 0.15105 0.50007 0.20262l0.20021 0.0545 0.90488 7.2e-4 0.25003-0.0528c0.96838-0.20463 1.7734-0.58139 2.6551-1.2426l0.33337-0.25 0.37072-0.37005 0.37071-0.37003 0.23975-0.32147c0.2597-0.34822 0.46231-0.66128 0.62801-0.97034 0.1015-0.1893 0.14551-0.24235 0.12845-0.1548-0.0045 0.023-0.02035 0.1274-0.03529 0.23217-0.03244 0.22743-0.17838 0.85011-0.2155 0.91945-0.05697 0.10646 4e-3 0.0655 0.11282-0.0759 0.17603-0.22855 0.36824-0.45071 0.38996-0.45071 0.01074 0 0.01347 0.0373 6e-3 0.0829l-0.01345 0.0829 0.05346 0.23265c0.15509 0.67482 0.53294 1.4413 0.96739 1.9623 0.08339 0.10001 0.26382 0.28896 0.40094 0.41987l0.24932 0.23804 0.2569 0.1718c0.47971 0.32079 0.99548 0.53018 1.6142 0.65531 0.42742 0.0864 0.92586 0.12284 1.2555 0.0917zm-4.6636-5.6354c0.02462-0.0156 0.15573-0.10528 0.29137-0.19927 0.52333-0.36267 0.83214-0.67491 1.0627-1.0746 0.28505-0.49404 0.36065-0.77651 0.39754-1.4853l0.02067-0.39718-0.02088-0.43625c-0.03232-0.67514-0.10305-1.2-0.27047-2.007-0.05661-0.27284-0.06327-0.36962-0.0171-0.2483 0.01191 0.0313 0.05075 0.126 0.08632 0.21048 0.39729 0.94359 0.58385 1.8509 0.58391 2.8396l1.8e-5 0.37384-0.07246 0.55274-0.07376 0.23086c-0.2718 0.8507-0.85334 1.3859-1.7541 1.6144-0.24757 0.0628-0.30133 0.0688-0.23375 0.0259zm4.0867-2.5379c0-0.0116 0.03483-0.0947 0.07739-0.18455l0.07739-0.16341-0.0034-0.47624-0.05273-0.12812c-0.029-0.0705-0.04846-0.13238-0.04325-0.13759 0.01805-0.018 0.12626 0.0351 0.20301 0.0997 0.0912 0.0768 0.15845 0.20079 0.18038 0.33272l0.01583 0.0953-0.04978 0.16114-0.04978 0.16113-0.07283 0.083c-0.04005 0.0456-0.08342 0.083-0.09637 0.083s-0.05079 0.0214-0.08409 0.0476c-0.06484 0.051-0.10175 0.0607-0.10175 0.0265zm1.0105-0.79443c0.01748-0.0426 0.04478-0.15242 0.06067-0.24408l0.0289-0.16669-0.07213-0.19645c-0.03967-0.10806-0.06699-0.19646-0.0607-0.19646 0.02845 0 0.1692 0.0819 0.21968 0.12779 0.20795 0.18916 0.14216 0.58335-0.12014 0.71981-0.08901 0.0463-0.09228 0.0437-0.05628-0.0439zm-0.61962-0.46435c0.03307-0.10509 0.06154-0.31123 0.06154-0.44541 0-0.18741-0.05082-0.35838-0.14532-0.48882l-0.07436-0.10265 0.09963 0.0133c0.0548 7e-3 0.14152 0.041 0.19271 0.075l0.09308 0.0616 0.04487 0.0893c0.02468 0.0491 0.0523 0.13015 0.06137 0.18011l0.0165 0.0908-0.02794 0.13538c-0.03861 0.18709-0.10215 0.30171-0.20662 0.37269-0.10451 0.071-0.13341 0.0757-0.11547 0.0186zm-0.91477-0.46821c0-5e-3 0.0324-0.0778 0.072-0.1625l0.072-0.15385 0.01449-0.15518 0.01449-0.15517-0.03019-0.12822c-0.04633-0.19678-0.11077-0.30602-0.27036-0.45835l-0.14628-0.13961 0.27278 0.0258 0.12246 0.0667c0.13747 0.0748 0.21 0.15857 0.28673 0.33111l0.05237 0.11775 5.4e-4 0.1786 5.4e-4 0.17859-0.0536 0.12141c-0.02948 0.0668-0.09853 0.16454-0.15342 0.21724l-0.09982 0.0958-0.07739 0.0143c-0.04256 8e-3 -0.07739 0.0104-0.07739 5e-3zm-4.8583-1.0841c-0.29185-0.0397-0.5672-0.16829-0.8624-0.40289-0.20789-0.16519-0.47815-0.48002-0.4426-0.51557 0.0058-5e-3 0.08497 0.0439 0.17587 0.11046 0.09089 0.0666 0.28313 0.17847 0.4272 0.24862l0.26194 0.12753 0.42862 0.1038 0.45244 0.00122 0.15478-0.0419c0.36491-0.099 0.66463-0.30414 0.82589-0.5654 0.04901-0.0794 0.09268-0.13357 0.09706-0.12041 0.01344 0.0403-0.08455 0.29239-0.16663 0.42867-0.09563 0.15877-0.34776 0.39995-0.50878 0.48666-0.21944 0.11818-0.57103 0.1762-0.84338 0.1392zm5.144-0.49481v-0.21105l-0.03695-0.14193c-0.0467-0.17934-0.12975-0.32156-0.28296-0.48454l-0.12061-0.1283 0.11906 0.0168c0.24127 0.0341 0.39793 0.15076 0.49461 0.36835l0.04654 0.10475-0.0096 0.2192-0.0096 0.21919-0.05997 0.11652c-0.03298 0.0641-0.07809 0.12002-0.10026 0.12429l-0.04028 8e-3zm-5.5979-0.13824c-0.38599-0.0937-0.73078-0.35423-0.96872-0.73191-0.09674-0.15357-0.16582-0.3459-0.21608-0.60163l-0.042-0.21374-0.14165-0.0149c-0.16767-0.0176-0.20493-0.031-0.3367-0.12024l-0.0998-0.0676-0.07132-0.14866c-0.03922-0.0817-0.07823-0.20392-0.08668-0.27148l-0.01536-0.12283 0.03706-0.1447c0.04558-0.17788 0.12951-0.34482 0.22875-0.45497l0.07509-0.0833-0.01544 0.0476c-0.05602 0.17283-0.08581 0.32945-0.0872 0.45863l-0.0016 0.14906 0.06314 0.12906 0.06314 0.12905 0.21179 0.1026 0.07771-0.0164c0.04275-9e-3 0.13666-0.0494 0.20869-0.0897l0.13097-0.0734 0.47625-0.46754c0.5944-0.58351 0.81796-0.74064 1.1726-0.82411l0.16095-0.0379 0.16669 0.0122c0.21705 0.0159 0.39095 0.0841 0.58927 0.23069l0.16065 0.11878 0.10573 0.14362c0.09911 0.13463 0.23614 0.44009 0.26728 0.59579l0.01381 0.069-0.18737-0.18459c-0.18796-0.18519-0.38737-0.31956-0.52076-0.35093l-0.07144-0.0168 0.08685 0.0924c0.27119 0.28845 0.47275 0.79859 0.47275 1.1966 0 0.20264-0.05668 0.47142-0.14209 0.67377-0.19297 0.45718-0.53974 0.75006-1.0393 0.87784l-0.1835 0.0469-0.20455-2e-3c-0.1125-9e-4 -0.26438-0.0165-0.33751-0.0343zm0.60208-0.34776c0.0694-0.0148 0.19994-0.0638 0.29007-0.10904l0.16389-0.0823 0.1137-0.11859c0.2174-0.22675 0.35515-0.57607 0.35589-0.90252 4.5e-4 -0.19932-0.04938-0.39349-0.15866-0.61818l-0.08685-0.17859-0.17135-0.17196-0.17135-0.17194-0.35069-0.1682h-0.17178l-0.10998 0.0728c-0.06049 0.04-0.17145 0.13918-0.24658 0.22026l-0.1366 0.14742 0.17785 0.0146c0.17563 0.0144 0.29536 0.0567 0.3512 0.12396l0.02867 0.0346-0.0563 0.0141c-0.08741 0.022-0.17964 0.10552-0.23398 0.21203l-0.04954 0.0971 0.01242 0.0926c0.01472 0.10976 0.09625 0.23691 0.18583 0.28982 0.17201 0.10161 0.42342-7e-3 0.49121-0.21205l0.02361-0.0715 0.02972 0.10716c0.01634 0.059 0.02906 0.17681 0.02826 0.26193l-0.0014 0.15477-0.04994 0.1612-0.04994 0.16119-0.10011 0.12256-0.10011 0.12255-0.30499 0.167-0.36581 0.0212-0.13242-0.0385c-0.07284-0.0211-0.1888-0.0764-0.2577-0.1228-0.06889-0.0464-0.13641-0.0912-0.15003-0.0996-0.01362-8e-3 -2.34e-4 0.0193 0.02991 0.0615 0.03007 0.0422 0.12945 0.1293 0.22084 0.19347l0.16617 0.1167 0.14699 0.0477c0.24152 0.0783 0.42865 0.0921 0.63992 0.0473zm4.091-0.67133c0-0.16925-0.20314-0.50377-0.38661-0.63668-0.05585-0.0405-0.09907-0.0808-0.09604-0.0897 0.0031-9e-3 0.06732-0.0215 0.14288-0.0281l0.13737-0.0119-0.0046-0.10204c-0.0057-0.12659-0.10023-0.3374-0.21303-0.47506-0.04695-0.0573-0.08149-0.10798-0.07674-0.11264 0.01563-0.0154 0.1952 0.0554 0.25727 0.10136 0.0335 0.0248 0.09491 0.0894 0.13647 0.14355l0.07556 0.0984 0.03002 0.13411 0.03002 0.13412-0.02709 0.12916-0.02709 0.12917 0.11688 0.21982v0.13778c0 0.0758-0.01045 0.16526-0.02322 0.19885-0.02433 0.064-0.07203 0.0836-0.07203 0.0297zm0.5573-0.74681c-0.30416-0.43982-0.63363-0.83689-1.0783-1.2996-0.26107-0.27162-0.8544-0.77828-1.1172-0.95404l-0.20723-0.13856 0.07143 0.0163c0.1405 0.0321 0.41639 0.12974 0.56492 0.19992 0.73325 0.34644 1.6128 1.286 1.8393 1.9649 0.04409 0.13213 0.10886 0.42477 0.09671 0.43692-0.0043 5e-3 -0.08064-0.0974-0.16958-0.22595zm-8.0921-0.16277c-0.068-0.0515-0.13254-0.15896-0.13272-0.22107-2.34e-4 -0.0814-0.06025-0.18245-0.12624-0.21252-0.03202-0.0146-0.10796-0.034-0.16877-0.0431-0.0608-9e-3 -0.11505-0.0238-0.12054-0.0328-0.0055-9e-3 0.01037-0.0617 0.03525-0.11721l0.04524-0.10104 0.08935-0.0374 0.08936-0.0374 0.24144 0.02 0.0765 0.0565c0.04207 0.0311 0.0979 0.10076 0.12406 0.1548l0.04756 0.0982v0.36834l-0.07266 0.1406-0.04106-7.6e-4c-0.02258-4.1e-4 -0.06163-0.0163-0.08678-0.0354zm5.0384-1.3748c-0.30571-0.38164-0.60072-0.58941-0.97659-0.68782l-0.18226-0.0477-0.5715-0.0018-0.1883 0.0402c-0.26103 0.0558-0.42015 0.11939-0.59907 0.23937-0.08428 0.0565-0.15322 0.0903-0.15322 0.0751s0.08841-0.11338 0.19645-0.21818l0.19645-0.19055 0.16669-0.0872c0.20628-0.10796 0.41233-0.16253 0.67731-0.17938l0.20376-0.013 0.1998 0.0379c0.47383 0.09 0.84335 0.37587 1.0486 0.81134 0.05797 0.12297 0.1302 0.37095 0.10806 0.37095-0.0039 0-0.06061-0.067-0.12619-0.14882zm-6.219-0.25694c0-0.0283 0.01683-0.0868 0.03739-0.13017l0.03739-0.0787 0.07053-0.0292c0.03879-0.0161 0.07706-0.0227 0.08504-0.0147 0.01381 0.0138-0.16723 0.26526-0.21 0.2917-0.0112 7e-3 -0.02035-0.0105-0.02035-0.0388zm0.35651-0.44038-0.03032-0.0365 0.02976-0.0556c0.05054-0.0945 0.4317-0.45538 0.63226-0.59872 0.23191-0.16574 0.57329-0.33617 0.71636-0.35762l0.1056-0.0158 0.03551 0.0294c0.05539 0.046 0.04227 0.10315-0.04189 0.18249-0.0828 0.078-1.1172 0.75824-1.2773 0.83993-0.11491 0.0586-0.13067 0.0598-0.16997 0.0124zm1.8788-1.128-0.05601-0.0454 0.04324-0.0478c0.02379-0.0263 0.07677-0.064 0.11774-0.0839l0.0745-0.0361 0.03999 0.0214c0.09166 0.0491 0.07825 0.14749-0.02755 0.2022-0.08881 0.0459-0.12462 0.044-0.19191-0.0105zm0.96664 15.677 0.47538-0.0371 0.75657-0.1416 0.4203-0.13226c0.45383-0.1428 1.0379-0.37061 1.1044-0.43072l0.04112-0.0372-0.05832-0.0978c-0.03208-0.0538-0.06843-0.10116-0.08078-0.10528-0.01236-5e-3 -0.0957 0.0292-0.18521 0.0741-0.21181 0.1061-0.66565 0.27762-1.0091 0.38137-0.45824 0.13842-0.80828 0.1946-1.4209 0.22808l-0.33851 0.0185-0.18537 0.11216c-0.10195 0.0617-0.21216 0.1328-0.2449 0.15802l-0.05953 0.0459 0.15478 5.4e-4c0.08513 2.7e-4 0.3687-0.0162 0.63016-0.0365zm-3.9744-1.1403 0.0559-0.0366 0.03332-0.1776-0.04715-0.0841c-0.02594-0.0463-0.11004-0.19118-0.1869-0.32215-0.20211-0.34441-0.36388-0.6478-0.42444-0.79599-0.02904-0.0711-0.06598-0.13363-0.08208-0.13901l-0.02927-0.01-0.07179 0.15343-0.07179 0.15341-0.09398 0.48482 0.0013 0.21942c7.38e-4 0.12068 0.01413 0.25657 0.02976 0.30194l0.02842 0.0825 0.07492 0.0504c0.1366 0.0918 0.49279 0.1825 0.64792 0.16491 0.04395-5e-3 0.10506-0.0256 0.13581-0.0457zm1.0506 9e-3c0.41621-0.0577 0.65323-0.2061 0.68989-0.43205l0.01329-0.0819-0.10645-0.13069c-0.05854-0.0719-0.23904-0.32816-0.4011-0.56951l-0.29466-0.43882-0.19668-0.38877c-0.10817-0.21382-0.19668-0.40403-0.19668-0.42267 0-0.0186-9e-3 -0.0339-0.02008-0.0339-0.01104 0-0.04243 0.0831-0.06975 0.18454-0.14902 0.55363-0.2083 1.2872-0.14768 1.8276l0.02404 0.21431 0.06605 0.0951c0.03632 0.0523 0.10847 0.11908 0.16031 0.14844l0.09426 0.0534 0.09948 3.6e-4c0.05471 1.8e-4 0.1833-0.0112 0.28575-0.0254zm-2.269-0.36904c0.0079-0.0207 0.01492-0.13591 0.01549-0.25599 5.67e-4 -0.12008 0.01014-0.26551 0.02128-0.32318l0.02025-0.10487-0.15114-0.21829c-0.16877-0.24376-0.3786-0.657-0.42404-0.83511l-0.02981-0.11685-0.08054 0.48486v0.53827l0.05581 0.20224c0.07128 0.2583 0.12942 0.36892 0.25774 0.49042 0.18385 0.17407 0.28432 0.21825 0.31493 0.1385zm3.8568-0.3078 0.20658-0.11596 0.17742-0.16348 0.17742-0.16348 0.02444-0.088c0.01345-0.0484 0.02451-0.11228 0.02458-0.14195l2.34e-4 -0.0539-0.29355-0.35087c-0.31115-0.37192-0.56183-0.70611-0.66958-0.89262-0.03594-0.0622-0.07458-0.11311-0.08588-0.11311-0.04629 0-0.18734 0.58374-0.23576 0.97569-0.04571 0.37006-0.01823 1.0226 0.04829 1.1469 0.03111 0.0581 0.15065 0.0916 0.29807 0.0834l0.12126-7e-3 0.20658-0.11596zm6.657-0.69633 0.42314-0.42268 0.29199-0.36804c0.50627-0.63812 0.80903-1.1314 1.4064-2.2915l0.35531-0.69002 0.12221-0.16485c0.06721-0.0907 0.20649-0.24315 0.3095-0.33884l0.18729-0.174 0.34315-0.1876-0.04935-7e-3c-0.0842-0.0125-0.40828 0.11077-0.55719 0.2119-0.17061 0.11586-0.36006 0.30464-0.52046 0.51863l-0.1183 0.15784-0.37262 0.72628c-0.76622 1.4934-1.1677 2.0673-2.049 2.9287l-0.44262 0.43264 0.02073 0.0201c0.01842 0.0178 0.15528 0.0636 0.20707 0.0693 0.0108 9e-4 0.21005-0.18805 0.44278-0.42052zm1.9376-0.0833 0.01329-0.29171 0.04994-0.19999c0.05299-0.21222 0.20581-0.57665 0.43039-1.0264 0.07521-0.15062 0.16642-0.35745 0.20266-0.45963l0.06591-0.18578-0.04528-0.0454-0.15104 0.29176c-0.40284 0.77819-0.48303 0.85885-0.89068 0.89598l-0.17021 0.0155 0.37159 0.1566 0.09298-0.0296 0.01337 0.0348c0.0074 0.0192 0.0018 0.0779-0.01242 0.13068l-0.0258 0.0958-0.22542 0.111-0.44113-7.2e-4 0.05387 0.041c0.02964 0.0226 0.11554 0.0763 0.1909 0.11939 0.07537 0.0431 0.16884 0.0967 0.20772 0.11925l0.0707 0.041 0.03212 0.128-0.04518 0.0341-0.04519 0.0341-0.16427-0.0146c-0.14851-0.0131-0.41896-0.0557-0.6299-0.0993l-0.0798-0.0165 0.0172 0.0902 0.12512 0.0748c0.21566 0.12887 0.59886 0.23539 0.87711 0.24383l0.09799 3e-3zm-7.4522-0.27385c0.13057-0.13315 0.37005-0.44621 0.52153-0.68175l0.07473-0.1162-0.09582-0.0862c-0.05269-0.0474-0.19314-0.17453-0.3121-0.28249l-0.21628-0.19628-0.1137-0.17948-0.11369-0.17947-0.02018 0.0361c-0.05789 0.10345-0.08982 1.2818-0.04255 1.5705l0.02303 0.14067 0.05242 0.0558c0.02883 0.0307 0.065 0.0558 0.08038 0.0558s0.08838-0.0617 0.16223-0.13693zm5.3974-0.50912c0.2076-0.091 0.36303-0.30241 0.39401-0.53597l0.01552-0.11698-0.02709-0.10059c-0.02788-0.10355-0.07288-0.1368-0.07288-0.0539 0 0.15877-0.19876 0.478-0.46788 0.75145l-0.13506 0.13724 0.09311-0.0172c0.05121-9e-3 0.14133-0.0383 0.20027-0.0641zm6.5876-0.29564c-0.1603-0.32459-0.21945-0.51453-0.27777-0.89195l-0.05334-0.34521 0.01351-0.47283 0.01351-0.47282-0.02371-0.21774c-0.0754-0.69249-0.36414-1.5294-0.71654-2.077l-0.10848-0.16857-0.1073-0.0696c-0.05901-0.0383-0.12721-0.0815-0.15155-0.0959l-0.04425-0.0264 0.12052-0.0611c0.1714-0.0868 0.2624-0.20056 0.44246-0.55292 0.23795-0.46562 0.43313-1.0369 0.53315-1.5605l0.03853-0.20166 0.03864-1.6907 0.04033-0.22622c0.05263-0.29519 0.17289-0.65517 0.31024-0.92865 0.06058-0.12062 0.10484-0.22463 0.09835-0.23112-0.0458-0.0458-0.64124 0.25747-0.92759 0.47242-0.39388 0.29568-0.82669 0.77247-1.0887 1.1993-0.11942 0.19456-0.56722 1.1095-0.67014 1.3692-0.14184 0.35793-0.31468 0.61772-0.48541 0.72958-0.06702 0.0439-0.07313 0.0851-0.02043 0.13788 0.05638 0.0563 0.15526 0.0453 0.27562-0.0311l0.10805-0.0685 0.10828-0.16364c0.05955-0.09 0.21588-0.37905 0.3474-0.64233 0.36948-0.73963 0.57476-1.0594 0.94351-1.4698 0.14902-0.16585 0.51995-0.5035 0.60428-0.55006l0.04004-0.0221-0.02532 0.034c-0.01392 0.0187-0.07923 0.10363-0.14512 0.18876-0.38924 0.5029-0.77417 1.1869-1.0319 1.8336-0.10615 0.26634-0.36016 1.0001-0.34621 1.0001 0.0053 0 0.10796-0.15799 0.22813-0.35107 0.27965-0.44935 0.49433-0.73327 0.72874-0.96375 0.16934-0.1665 0.51183-0.44731 0.54556-0.44731 0.0193 0-0.07159 0.12709-0.22989 0.32147-0.21508 0.26411-0.45669 0.66803-0.74667 1.2483-0.14778 0.29572-0.27675 0.56342-0.28658 0.59489l-0.01787 0.0572 0.19922-0.20265c0.10957-0.11146 0.27986-0.26176 0.37842-0.33401 0.22466-0.16468 0.49945-0.33379 0.49945-0.30738 0 0.0281-0.11365 0.18179-0.38036 0.51453-0.22929 0.28606-0.39944 0.51972-0.49655 0.68192l-0.05141 0.0859 0.2677-0.0917c0.14724-0.0504 0.28783-0.0917 0.31243-0.0918l0.04472-1.5e-4 -0.12806 0.13295c-0.07043 0.0731-0.22705 0.21807-0.34803 0.3221l-0.21997 0.18916-0.02938 0.117 0.06081 0.10377c0.03344 0.0571 0.11761 0.14679 0.18703 0.19938 0.06943 0.0526 0.20123 0.16723 0.29291 0.25476l0.16669 0.15912-0.10592-0.0158c-0.05826-9e-3 -0.19539-0.0403-0.30474-0.0705l-0.19881-0.0547 0.0641 0.11117c0.10442 0.18108 0.39383 0.56845 0.63903 0.85531 0.12595 0.14734 0.22301 0.26788 0.2157 0.26788-0.08035 0-0.61695-0.34289-0.79538-0.50826-0.07321-0.0679-0.15864-0.14466-0.18984-0.17069l-0.05673-0.0473 0.05019 0.0991c0.02761 0.0545 0.07776 0.17234 0.11144 0.26184 0.19056 0.50627 0.67199 1.2444 1.045 1.6023 0.23846 0.22878-0.05799 0.0824-0.47027-0.23209-0.16378-0.12495-0.53527-0.56414-0.75323-0.89048-0.08478-0.12692-0.15705-0.22786-0.16061-0.2243-0.0036 4e-3 0.02435 0.0967 0.06201 0.20702 0.29202 0.85522 0.73098 1.6096 1.2637 2.1717 0.19084 0.20138 0.22814 0.26544 0.12128 0.20825-0.09004-0.0481-0.43669-0.33586-0.62886-0.52186-0.40509-0.39211-0.66649-0.74785-1.0056-1.3685-0.34023-0.62275-0.51662-0.80737-0.67542-0.70692l-0.03466 0.022 0.12205 0.12905c0.13888 0.14684 0.2806 0.35851 0.32694 0.4883 0.07977 0.22339 0.44397 0.92252 0.60978 1.1705 0.48481 0.72516 1.1436 1.2706 1.8174 1.5045l0.19357 0.0672 0.0067-0.0303c0.0037-0.0167-0.04063-0.12633-0.09853-0.2436zm-11.021-0.65975c0.17168-0.35282 0.2712-0.60282 0.26102-0.65569-0.0041-0.0215-0.03426-0.0525-0.06691-0.0687-0.20447-0.10156-0.58006-0.26902-0.58725-0.26183-0.01792 0.0179 0.04453 0.60952 0.08815 0.83497 0.04781 0.24711 0.11142 0.44292 0.14389 0.44292 0.01053 0 0.08303-0.13126 0.1611-0.2917zm-1.6437 0.12863 0.04014-0.0615-0.0066-0.28525c-0.0036-0.15687-0.01196-0.29061-0.01852-0.29717-0.0066-6e-3 -0.04576 0.0303-0.0871 0.082-0.04135 0.0517-0.12674 0.14483-0.18976 0.20704l-0.11458 0.11311h-0.0477c-0.02623 0-0.0477-0.01-0.0477-0.0221 0-0.0122 0.07043-0.0952 0.15649-0.18454 0.18464-0.19159 0.2007-0.22538 0.2007-0.42232v-0.14969l0.11407-0.10507 0.11407-0.10508 0.04097-0.44021c0.02253-0.2421 0.04779-0.55539 0.05612-0.69618l0.01516-0.25599h-0.03786c-0.02083 0-0.07341 0.021-0.11686 0.0466l-0.07899 0.0466-0.03548-0.0224c-0.05536-0.035-0.05954-0.0319-0.16969 0.12347-0.05715 0.0806-0.12792 0.17212-0.15726 0.20326l-0.05334 0.0566-0.04691 0.51708c-0.07181 0.79157-0.13036 1.6698-0.11251 1.6876 0.01922 0.0193 0.43844 0.0487 0.49982 0.0352 0.02376-5e-3 0.06127-0.0372 0.08334-0.071zm-1.1387-0.40247v-0.16074l-0.0499 0.0833c-0.02745 0.0458-0.08309 0.11817-0.12365 0.16074l-0.07374 0.0774h0.24747v-0.16074zm0.11915-0.31552c0-0.0131-0.01072-0.0239-0.02381-0.0239s-0.02381 0.0107-0.02381 0.0239c0 0.0131 0.01072 0.0238 0.02381 0.0238 0.0131 0 0.02381-0.0107 0.02381-0.0238zm2.0776-0.22142 2e-3 -0.17778-0.10312-0.131v-0.1742l0.40529-1.1864 0.06376-0.0665 0.06375-0.0665h0.0855c0.10688 0 0.18331 0.0518 0.20178 0.13695l0.01421 0.0654-0.03613 0.13808c-0.01987 0.076-0.03614 0.14751-0.03614 0.15903 0 0.025 0.24442 0.11961 0.30905 0.11961 0.05896 0 0.06807-0.0172 0.10653-0.201l0.03226-0.15416-0.02244-0.0998c-0.01234-0.0549-0.04345-0.12936-0.06914-0.16543-0.02569-0.0361-0.0467-0.0886-0.0467-0.11657 0-0.0756-0.09245-0.1545-0.25024-0.21354l-0.1401-0.0524-0.26451-4e-3 -0.08508 0.0358c-0.04679 0.0197-0.12405 0.07-0.17169 0.11185l-0.08662 0.0761-0.07214 0.15271c-0.09796 0.20732-0.25138 0.65585-0.33613 0.98269l-0.06988 0.2695 5.22e-4 0.17103 5.22e-4 0.17104 0.04459 0.0982c0.05411 0.11914 0.17683 0.22162 0.32911 0.2748 0.06238 0.0218 0.11698 0.0361 0.12135 0.0318 0.0043-4e-3 0.0088-0.0878 0.0099-0.18563zm0.78857-0.33302c0.02143-0.0561 0.03895-0.1088 0.03895-0.11712 0-8e-3 -0.07233-0.039-0.16073-0.0681-0.08841-0.0292-0.17414-0.058-0.19052-0.064l-0.02979-0.011-0.04715 0.10377-0.04715 0.10375 0.16028 0.0765c0.08816 0.042 0.17758 0.0769 0.19872 0.0774l0.03844 9e-4 0.03895-0.102zm-6.3882-0.56659c0.12974-0.0403 0.23589-0.0842 0.23589-0.0976 0-0.0133-0.06034-0.14914-0.1341-0.30176-0.07376-0.15262-0.21821-0.45854-0.32101-0.67985-0.1028-0.22131-0.1935-0.40883-0.20157-0.41672-0.0081-8e-3 -0.0081 0.0445 0 0.11662 8e-3 0.072 0.03611 0.39886 0.06238 0.72628 0.05222 0.65086 0.06243 0.72628 0.09841 0.72628 0.01328 0 0.1303-0.0329 0.26004-0.0733zm12.273-0.26009 0.01746-0.0596-0.02342 0.0239c-0.01288 0.013-0.0303 0.056-0.03872 0.0952l-0.01531 0.0715 0.02126-0.0357c0.01169-0.0196 0.02911-0.0625 0.03872-0.0952zm-8.7084-0.67271c0.0032-0.25211 0.0122-0.54674 0.02014-0.65473l0.01444-0.19635-0.07816-0.1194h-0.33228v0.0471c0 0.0574 0.10196 0.33307 0.15146 0.40945l0.03593 0.0554 0.01255 0.23045c0.01357 0.24929 0.06395 0.50352 0.12203 0.61583 0.02005 0.0388 0.0391 0.0705 0.04233 0.0705 0.0032 0 0.0085-0.20627 0.01157-0.45839zm0.68147 0.22027c0.04994-0.0655 0.10486-0.11906 0.12205-0.11906 0.01719 0 0.10029-0.059 0.18467-0.13097 0.08438-0.072 0.16512-0.13097 0.17942-0.13097 0.0143 0 0.0321-0.0348 0.03955-0.0774 0.0075-0.0426 0.02354-0.13097 0.03576-0.19645l0.0222-0.11906-0.05117-0.0433-0.05116-0.0433-0.04899 0.0152c-0.02695 8e-3 -0.09763 0.021-0.15707 0.0279l-0.10808 0.0127-0.03176-0.0383c-0.03619-0.0437-0.13419-0.0512-0.15826-0.0122-0.02562 0.0415-0.09739 0.97408-0.07496 0.97408 0.0039 0 0.04787-0.0536 0.09781-0.11906zm1.5874-1.1574 0.23661-0.20488v-0.041c0-0.0405-0.28218-0.51248-0.39608-0.66244l-0.05878-0.0774h-0.09436l-0.01781 0.0481c-0.0098 0.0265-0.02065 0.16847-0.0241 0.31552l-0.0063 0.26736 0.03707 0.21432c0.05049 0.29191 0.06218 0.34527 0.07561 0.34527 0.0063 0 0.118-0.0922 0.24814-0.20488zm-2.3368-0.6226c0.12091-0.41866 0.30905-0.79557 0.58541-1.1728 0.08157-0.11132 0.16149-0.2434 0.17762-0.29349l0.02932-0.0911-0.01513-0.10091-0.01513-0.1009-0.07202-0.0874c-0.0789-0.0957-0.49443-0.38313-0.71464-0.49429-0.0765-0.0386-0.1717-0.0702-0.21156-0.0702h-0.07247l-0.1685 0.1548-0.02199 0.0953c-0.03016 0.13067-0.02872 0.72945 0.0023 0.95673 0.03199 0.23441 0.14404 0.70446 0.22159 0.92964 0.07465 0.21676 0.18288 0.45916 0.20501 0.45916 0.0093 0 0.04088-0.0831 0.07018-0.18455zm1.2279 0.0476c0.03921-0.0622 0.17038-0.22022 0.29146-0.35119l0.22017-0.23813 0.04538-0.1588-0.02031-0.0535c-0.05334-0.14029-0.52883-0.65688-0.60462-0.65688-0.06851 0-0.11274 0.0305-0.15064 0.10374l-0.03835 0.0742-4.77e-4 0.33372-4.77e-4 0.33373 0.04082 0.22622c0.04717 0.2614 0.10971 0.50008 0.13102 0.50002 0.0081-3e-5 0.04681-0.0509 0.08602-0.11311zm-4.7862-1.4488 0.17069-0.33558-0.05207-0.35756c-0.02864-0.19667-0.05963-0.3698-0.06887-0.38476-0.05404-0.0874-0.20145 0.0289-0.35924 0.28353l-0.09521 0.15363-0.0166 0.5983 0.039 0.21282c0.02145 0.11705 0.05639 0.2664 0.07764 0.33188l0.03865 0.11906 0.04763-0.14287c0.0262-0.0786 0.12444-0.29389 0.21832-0.47845zm2.2205 0.0936c0.06969-0.14616 0.22814-0.41768 0.35212-0.60339l0.22541-0.33765v-0.20258l-0.05535-0.10495c-0.03044-0.0577-0.08912-0.12781-0.13038-0.15575-0.09681-0.0655-0.41511-0.15122-0.6191-0.1666l-0.15957-0.0121-0.07624 0.0482c-0.20297 0.12829-0.21905 0.40432-0.06386 1.0962 0.06638 0.29594 0.1644 0.61074 0.2488 0.79902l0.05315 0.11859 0.04916-0.10668c0.02704-0.0587 0.10618-0.22625 0.17587-0.37241zm-1.4693 0.0213c0.06354-0.19939 0.31932-0.78956 0.44076-1.017 0.07132-0.13355 0.12944-0.26872 0.12915-0.30035-7.65e-4 -0.0845-0.08331-0.25214-0.13876-0.28182-0.06628-0.0355-0.18393-0.0322-0.38802 0.0107-0.20794 0.0437-0.30604 0.0968-0.3532 0.19098l-0.03516 0.0702 0.0015 0.26194 0.0015 0.26193 0.0516 0.21432c0.06663 0.27673 0.21746 0.70565 0.24267 0.69007 0.01075-6e-3 0.0323-0.0521 0.0479-0.10105zm-0.27726-3.6013c0.10478-0.13751 0.25438-0.32899 0.33244-0.4255l0.14193-0.17546-0.05741 0.0175c-0.03158 0.01-0.12171 0.051-0.20028 0.0921l-0.14287 0.0747-0.1471 0.14666-0.1471 0.14665-0.09483 0.19862c-0.09453 0.198-0.14675 0.38475-0.14675 0.52482v0.0738l0.13574-0.2119c0.07466-0.11655 0.22147-0.32442 0.32625-0.46194zm12.223-0.12361c-0.05936-0.0957-0.13274-0.24906-0.16307-0.34073l-0.05515-0.16669-5.4e-4 -0.5715 0.11156-0.32306-0.16294-0.17787c-0.22192-0.24225-0.32546-0.39574-0.39187-0.58088l-0.05611-0.15645-3.6e-4 -0.28575c-2.7e-4 -0.15715 5e-3 -0.32226 0.01156-0.3669l0.01191-0.0812-0.16469-0.0974c-0.21448-0.1269-0.41718-0.31465-0.49519-0.45869-0.07049-0.1302-0.114-0.33354-0.114-0.53285v-0.13527l-0.11048-0.0151c-0.06076-8e-3 -0.15988-0.0153-0.22026-0.0155-0.15635-5.1e-4 -0.39567-0.0617-0.53252-0.13619-0.06451-0.0351-0.16985-0.12134-0.23408-0.19162l-0.11678-0.12777-0.03937-0.13517-0.03937-0.13518 0.02416-0.14288c0.01328-0.0786 0.02202-0.14553 0.01941-0.14877-9e-3 -0.0112-0.3344 0.10661-0.57238 0.2071-0.85788 0.36226-1.7062 0.98287-2.2772 1.666-0.10306 0.12329-0.18739 0.2312-0.18739 0.23978 0 9e-3 0.10984 0.0284 0.24408 0.0442 0.13424 0.0157 0.26613 0.0345 0.29308 0.0416l0.049 0.0131 0.21556-0.26947c0.46162-0.57707 0.84133-0.95247 1.3264-1.3114 0.19504-0.1443 0.64694-0.39386 0.67052-0.37029 0.0051 5e-3 -0.05048 0.057-0.12354 0.11529-0.28601 0.22823-0.87207 0.89654-1.1253 1.2832-0.18368 0.28049-0.3659 0.61281-0.35461 0.64668 0.0047 0.0141 0.08154-0.0608 0.17075-0.16657 0.20493-0.24284 0.43109-0.45127 0.65211-0.60097 0.09495-0.0644 0.17264-0.11102 0.17264-0.10379 0 7e-3 -0.02622 0.0531-0.05827 0.10193-0.08354 0.12731-0.19567 0.42041-0.25272 0.66063-0.02705 0.11387-0.04503 0.21118-0.03995 0.21625 5e-3 5e-3 0.08342-0.0528 0.17412-0.12869 0.69777-0.58351 1.4986-1.0369 1.9628-1.1112l0.10716-0.0172-0.1135 0.0614c-0.4482 0.2423-1.0061 0.71677-1.3092 1.1134-0.13916 0.18212-0.30372 0.44216-0.30372 0.47994 0 0.012 0.08597-0.0571 0.19105-0.15337 0.10507-0.0964 0.26313-0.23185 0.35123-0.30114 0.18324-0.14409 0.57232-0.37471 0.59461-0.35243 0.0082 8e-3 -0.02347 0.0549-0.0704 0.10379-0.04694 0.0489-0.11771 0.14244-0.1573 0.20792-0.11694 0.19346-0.29376 0.6829-0.25919 0.71747 0.0075 7e-3 0.10913-0.0455 0.22585-0.11765 0.48622-0.30076 0.96837-0.48884 1.4102-0.55008l0.10716-0.0148-0.15478 0.0867c-0.54035 0.30264-1.12 0.8251-1.1794 1.0631-0.02058 0.0824-0.0038 0.0821 0.10444-2e-3 0.11936-0.0926 0.35183-0.22999 0.48736-0.28808 0.15928-0.0683 0.59244-0.19215 0.61758-0.1766 0.01156 7e-3 -0.05316 0.0896-0.14381 0.18318-0.17822 0.18405-0.23007 0.2658-0.2559 0.40346l-0.01665 0.0887 0.03149 0.0379c0.01732 0.0209 0.05872 0.0483 0.092 0.0611 0.08292 0.0318 0.53039 0.0899 0.69594 0.0905 0.07446 2.5e-4 0.1646 0.0116 0.20033 0.0252l0.06496 0.0247-0.02174 0.0185c-0.01195 0.0102-0.08603 0.0377-0.16461 0.0612-0.17534 0.0524-0.46658 0.20145-0.59737 0.30574l-0.09731 0.0776 0.2759 1e-5 0.2759 3e-5 0.27138 0.1328 0.04593 0.0762c0.02526 0.0419 0.06431 0.1329 0.08679 0.20215 0.02247 0.0692 0.07576 0.17778 0.11843 0.24117l0.07757 0.11528-0.17111 0.011c-0.09411 6e-3 -0.18437 0.0192-0.20057 0.0292l-0.02947 0.0182 0.19592 0.0686c0.10775 0.0377 0.26123 0.0994 0.34106 0.13698 0.07983 0.0376 0.14897 0.0652 0.15366 0.0613 0.0047-4e-3 -0.04005-0.0854-0.09941-0.18113zm-15.647 12.41-0.16454-0.166 0.07862-0.23195c0.04324-0.12757 0.10086-0.26945 0.12804-0.31529 0.05993-0.10108 0.75551-0.82778 0.85086-0.88895l0.06798-0.0436 0.1148 0.1238-0.01228 0.15307-0.01229 0.15305 0.06864 0.0154c0.13432 0.0301 0.14971 0.0377 0.16347 0.081 0.02398 0.0756-0.03694 0.48293-0.09456 0.63236-0.0303 0.0786-0.07298 0.19882-0.09485 0.26719l-0.03975 0.12431-0.13896 0.117-0.1372 0.0283c-0.07546 0.0156-0.215 0.0485-0.3101 0.0732-0.0951 0.0248-0.20226 0.0446-0.23812 0.044l-0.06521-9e-4zm0.29551-0.28914v-0.021l-0.04763 0.0255c-0.02619 0.014-0.04763 0.0428-0.04763 0.0641v0.0386l0.04763-0.0431c0.02619-0.0237 0.04763-0.0526 0.04763-0.0641zm0.55107-0.10569c0.02444-0.0221 0.05624-0.0841 0.07067-0.13761 0.01442-0.0536 0.07943-0.19847 0.14445-0.32202l0.11822-0.22463-0.25242-0.0762-0.0976-0.145-0.10402 0.11653c-0.05721 0.0641-0.19092 0.18913-0.29714 0.27785l-0.19312 0.1613-0.05626 0.16392c-0.03094 0.0901-0.06102 0.17633-0.06684 0.19151l-0.01059 0.0276 0.15037-0.0112 0.15037-0.0113 0.26145 0.0688 0.06901-0.0198c0.03796-0.0109 0.08901-0.0379 0.11346-0.06zm-3.4324 0.37938-0.32147-0.0347-0.07822-0.037c-0.09089-0.043-0.13299-0.10841-0.11211-0.17422 0.0081-0.0255 0.0971-0.11809 0.19777-0.20572 0.10068-0.0877 0.48717-0.43327 0.85888-0.76808 0.37171-0.33482 0.71799-0.63977 0.76951-0.67766l0.09368-0.0688 0.02703 0.027 0.02702 0.027-0.05186 0.17629c-0.10014 0.34038-0.50544 1.2092-0.69527 1.4905-0.04865 0.0721-0.1036 0.1632-0.12211 0.2025l-0.03366 0.0715-0.11886 3e-3c-0.06538 2e-3 -0.26353-0.0125-0.44033-0.0316zm0.39792-0.24824c-0.0072-0.054-0.0236-0.10857-0.03635-0.12132l-0.02318-0.0232-0.18705 0.0387c-0.2782 0.0575-0.36849 0.0849-0.35458 0.10735 0.01144 0.0185 0.25818 0.058 0.58143 0.0931l0.0329 4e-3zm0.19739-0.0891c0-0.0112 0.04356-0.0997 0.09681-0.19645 0.10098-0.18353 0.28646-0.56885 0.27382-0.56885-4e-3 0-0.10504 0.14368-0.22452 0.31929l-0.21723 0.31928 0.01472 0.0736c0.01307 0.0653 0.05639 0.10612 0.05639 0.0531zm-3.1645-0.87273c-0.2887-0.0814-0.53707-0.24537-0.73887-0.48786l-0.12185-0.14641-0.11879-0.2432-0.11879-0.24321-0.05853-0.26104c-0.07614-0.3396-0.28356-1.5601-0.34788-2.047l-0.05033-0.381-3.51e-4 -0.38099-3.51e-4 -0.38101 0.04971-0.18607c0.09483-0.35498 0.26812-0.60197 0.55877-0.79636l0.17275-0.11554 0.23294-0.0772c0.26838-0.089 0.56012-0.13757 0.68482-0.11401l0.08631 0.0163-0.01138 0.10093c-0.01568 0.13908 0.02917 0.28753 0.11713 0.38771 0.09732 0.11085 0.18628 0.15438 0.33648 0.16467l0.12333 8e-3 0.01415 0.12758c0.0077 0.0702 0.0263 0.15026 0.04114 0.17799 0.04354 0.0814 0.16563 0.17136 0.27093 0.19972l0.09783 0.0264 0.10213-0.0257c0.14473-0.0365 0.1475-0.0355 0.17537 0.0635 0.07598 0.26998 0.30818 1.4985 0.40846 2.161l0.05406 0.35719 0.0013 0.40482 0.0014 0.40481-0.04332 0.18462c-0.02382 0.10155-0.08196 0.26229-0.1292 0.35719l-0.08589 0.17256-0.15654 0.15567-0.15655 0.15566-0.17144 0.0891c-0.09429 0.049-0.25503 0.11092-0.35719 0.1376l-0.18575 0.0485-0.54769 0.0208-0.12838-0.0362zm0.65245-0.96091c0.11633-0.0528 0.23367-0.18195 0.27702-0.30479l0.03223-0.0913-0.0052-0.52388-0.12406-0.7739c-0.14986-0.93485-0.26304-1.5168-0.34601-1.7792l-0.06187-0.19561-0.07662-0.0996c-0.04214-0.0548-0.11396-0.11946-0.15959-0.14372l-0.08297-0.0441h-0.27654l-0.09462 0.0482c-0.05204 0.0265-0.12603 0.0916-0.16442 0.14463l-0.0698 0.0964-0.02842 0.12701-0.02842 0.12702 0.01307 0.2939 0.01307 0.29389 0.13193 0.83344c0.24922 1.5744 0.33324 1.8439 0.62244 1.9964l0.07143 0.0376 0.26194 9e-4 0.09545-0.0434zm2.1622-0.21157-0.09585-0.0893-0.02889-0.0889c-0.01589-0.0489-0.02543-0.11275-0.02122-0.14191l0.0076-0.053 0.1628-0.0934 0.1628-0.0934 0.18156 0.06 0.05546 0.1036-0.03928 0.10591c-0.02161 0.0582-0.0532 0.14272-0.0702 0.18772s-0.05209 0.0896-0.07798 0.0992c-0.02587 0.01-0.05357 0.0344-0.06152 0.0551-0.02276 0.0593-0.07178 0.0449-0.17533-0.0516zm0.2326-0.40373 0.05773-0.0644-0.05823 0.0366c-0.03202 0.0202-0.06239 0.0491-0.06747 0.0644-0.01459 0.0437 0.0057 0.0328 0.06797-0.0366zm2.689 0.2437c-0.05893-0.0175-0.42238-0.12027-0.80764-0.22853l-0.70049-0.19684-0.04365-0.0437c-0.02401-0.024-0.04365-0.0692-0.04365-0.10036 0-0.0311 0.07059-0.30175 0.15685-0.60126 0.08626-0.29951 0.26796-0.94104 0.40374-1.4256 0.13579-0.48458 0.26011-0.92197 0.27626-0.97196l0.02937-0.0909 0.0491 0.0162c0.027 9e-3 0.09036 0.0216 0.1408 0.0282l0.09171 0.012 0.05555-0.0297c0.03055-0.0164 0.06827-0.0605 0.08382-0.098l0.02827-0.0682h0.16568l0.15816-0.1582 0.0334-0.178 0.02685 9e-3c0.01477 5e-3 0.248 0.0718 0.51829 0.14814 0.27029 0.0763 0.51613 0.15739 0.5463 0.18016l0.05486 0.0414-0.04271 0.19876c-0.04825 0.22455-0.08915 0.31745-0.15534 0.35287l-0.04555 0.0244-0.4958-0.14088c-0.27269-0.0775-0.49978-0.13691-0.50465-0.13204-0.0099 0.01-0.23226 0.7837-0.24517 0.85306l-0.0082 0.0441 0.78541 0.23044 0.04187 0.0517c0.02303 0.0284 0.04188 0.081 0.04188 0.11678 0 0.0664-0.07291 0.30325-0.12311 0.39995l-0.02782 0.0536h-0.07114c-0.03912 0-0.22216-0.0444-0.40674-0.0986-0.18458-0.0543-0.3564-0.0998-0.3818-0.10121l-0.0462-3e-3 -0.13774 0.47624c-0.07576 0.26195-0.13393 0.48723-0.12926 0.50063 0.0047 0.0134 0.231 0.0876 0.50295 0.16488l0.49447 0.14051 0.1227 0.1054-0.11174 0.46352-0.04469 0.0447c-0.05173 0.0517-0.08798 0.0532-0.23519 0.01zm-2.8089-1.7446c-0.10262-0.0193-0.28892-0.10082-0.39176-0.17158-0.16353-0.11251-0.27423-0.2417-0.35836-0.41818-0.14733-0.3091-0.17878-0.51592-0.24077-1.5835l-0.0394-0.67866 0.0144-0.29765c0.01704-0.35208 0.06059-0.55247 0.16107-0.74099l0.07366-0.13821 0.13916-0.13273 0.13916-0.13274 0.14972-0.0696c0.08235-0.0383 0.22473-0.0816 0.31641-0.0964l0.16669-0.0268 0.18908 0.0159c0.18112 0.0153 0.42631 0.0864 0.45437 0.13176 0.0073 0.0119-0.0019 0.0514-0.02055 0.0877-0.08219 0.16058-0.06745 0.36521 0.03409 0.4733l0.05092 0.0542 0.0072 0.0967c0.0097 0.12993 0.08308 0.24161 0.20309 0.30906l0.09906 0.0557 0.22797-0.027 0.0094 0.0806c0.02024 0.17339-0.05898 0.23564-0.326 0.25619-0.16166 0.0124-0.37813-7e-3 -0.40808-0.0373-0.0081-8e-3 -0.02948-0.11406-0.04753-0.23548l-0.03281-0.22076-0.05344-0.10635c-0.02939-0.0585-0.08374-0.12835-0.12075-0.15522l-0.0673-0.0489-0.14041 8.2e-4 -0.14041 8.3e-4 -0.06613 0.049c-0.08885 0.0658-0.16762 0.18555-0.20014 0.30419l-0.02675 0.0976 0.01414 0.39291c0.02444 0.67891 0.08551 1.65 0.11156 1.774 0.03562 0.16957 0.12102 0.32472 0.21297 0.38695l0.07916 0.0536 0.24299-1.8e-4 0.15802-0.0962 0.04592-0.1038 0.04592-0.10381 0.02021-0.21108c0.01111-0.11609 0.01543-0.26206 0.0096-0.32438l-0.01063-0.11332 0.18342-0.0784 0.50609-0.0224 0.10112 0.1012v0.52589l-0.03699 0.18353c-0.02034 0.10096-0.07356 0.26157-0.11824 0.35694l-0.08125 0.17339-0.11543 0.11236c-0.1294 0.12597-0.3148 0.22532-0.52036 0.27886l-0.13785 0.0359-0.20336-4e-3c-0.11185-2e-3 -0.2297-8e-3 -0.26191-0.0142zm3.1423-3.291c-0.05893-0.0246-0.12356-0.0498-0.14361-0.056l-0.03646-0.0114-0.03791-0.12777-0.03791-0.12776 3e-3 -0.19544 3e-3 -0.19545 0.10616-0.10816 0.10616-0.10817 0.07243 1e-4c0.08466 1e-4 0.17943 0.0543 0.3063 0.17517 0.05005 0.0477 0.10095 0.0867 0.11311 0.0867 0.0454 0 0.02008 0.0472-0.03239 0.0604-0.07731 0.0194-0.17094-0.0223-0.26809-0.11948-0.09192-0.0919-0.1322-0.10264-0.17805-0.0474l-0.03022 0.0365 0.11198 0.1192 0.0098 0.15997c0.0054 0.088 0.0209 0.17377 0.03451 0.19063l0.02475 0.0307 0.20575-0.0308 0.21721 0.0886-0.0067 0.0709-0.0068 0.0709-0.10716 0.0409c-0.14034 0.0536-0.29586 0.0526-0.42862-3e-3zm-5.0006-1.6581-0.29766-0.15499-8e-3 -0.0365c-9e-3 -0.0407 0.08828-0.19742 0.19014-0.3064l0.06679-0.0715 0.13241 0.13071c0.13436 0.13263 0.31957 0.37064 0.34735 0.44636 0.0084 0.0229 0.0063 0.0656-0.0047 0.0951l-0.01994 0.0536-0.05434-7.3e-4c-0.02989-4e-4 -0.18829-0.0705-0.352-0.15573zm5.1523 0.0155c-0.09103-0.0553-0.68712-0.63698-0.74896-0.73078-0.02495-0.0379-0.04544-0.10578-0.04552-0.15096l-2.38e-4 -0.0822 0.11686-0.10971c0.06427-0.0603 0.16036-0.12933 0.21352-0.15329l0.09666-0.0436 0.05701 0.0374c0.15276 0.10009 0.34234 0.58392 0.39707 1.0134l0.02839 0.22272-0.04156 0.0416-0.0733-0.0445zm-0.1382-0.37981c-0.04909-0.0949-0.204-0.5682-0.204-0.62325 0-0.12616-0.22696-0.012-0.27233 0.13703l-0.01603 0.0526 0.25729 0.25873c0.14151 0.1423 0.26076 0.25623 0.265 0.25318 0.0042-3e-3 -0.0092-0.0383-0.02992-0.0783zm-2.3828 0.0598c-0.20912-0.0982-0.61971-0.33417-0.92241-0.5301l-0.23184-0.15006 0.01077-0.10212c0.0059-0.0562 0.01662-0.24584 0.02377-0.4215l0.013-0.31938 0.05468-0.0658 0.24339 4e-3c0.13386 2e-3 0.25392 0.0106 0.26679 0.019 0.01287 8e-3 0.07778 0.1118 0.14424 0.23004 0.06646 0.11825 0.23386 0.37542 0.37199 0.5715l0.25115 0.35652 3.33e-4 0.20641c3.33e-4 0.20064-0.01247 0.28264-0.04387 0.28089-0.0085-4.7e-4 -0.09032-0.0361-0.182-0.0791zm-0.2233-0.36648c-0.02637-0.036-0.16168-0.18872-0.30068-0.33933-0.139-0.15062-0.29228-0.3255-0.34063-0.38865l-0.08789-0.1148-0.02075 0.19731-0.02075 0.19732 0.04457 0.0324c0.05417 0.0394 0.75585 0.47914 0.76651 0.48034 0.0041 4.7e-4 -0.014-0.0286-0.04037-0.0646zm1.0907-1.9824c-0.32242-0.0509-0.68273-0.24955-0.91145-0.50229-0.149-0.16465-0.28389-0.41842-0.34052-0.64065l-0.03945-0.15478-4.32e-4 -0.21432c-5.49e-4 -0.27431 0.03488-0.42389 0.16472-0.69528l0.10479-0.21902 0.16164-0.16197c0.18042-0.18079 0.35576-0.29359 0.59474-0.38261l0.16054-0.0598 0.52478-0.0228 0.15433 0.0393c0.55636 0.1417 0.99122 0.56911 1.1353 1.1158l0.03906 0.14822-0.0014 0.23812-0.0014 0.23813-0.05253 0.16669c-0.12037 0.38194-0.32354 0.6603-0.633 0.86728l-0.17852 0.1194-0.37786 0.1194-0.18527 0.0111c-0.1019 6e-3 -0.24499 2e-3 -0.31798-0.01zm0.52724-0.34785c0.17129-0.0508 0.29349-0.11366 0.44368-0.2283l0.12384-0.0945 0.10822-0.15875c0.13609-0.19962 0.2052-0.39444 0.22103-0.62308l0.01237-0.1786-0.03928-0.15478c-0.0216-0.0851-0.06765-0.21372-0.10233-0.28575l-0.06305-0.13097-0.16851-0.16852-0.16851-0.1685-0.13097-0.0629c-0.07204-0.0346-0.19483-0.0794-0.27289-0.0994-0.38358-0.0985-0.80923 0.0256-1.106 0.32231l-0.13458 0.13457-0.07628 0.1522c-0.25273 0.50423-0.1732 1.0367 0.21242 1.4224 0.23629 0.23629 0.51806 0.3564 0.84316 0.35943l0.16832 2e-3 0.12934-0.0383zm-1.1574-1.2399-0.03999-0.04 0.01204-0.0897c0.0067-0.0494 0.0472-0.16607 0.09019-0.25931l0.07815-0.16956 0.11316-0.10174 0.11316-0.10175 0.13549-0.0426c0.24507-0.0771 0.39162-0.0508 0.39162 0.07 0 0.0637-0.06926 0.13176-0.13412 0.13176-0.02587 0-0.10286 0.0278-0.1711 0.0618l-0.12407 0.0618-0.09444 0.13187c-0.05194 0.0725-0.10103 0.16702-0.10908 0.20996-0.02887 0.15389-0.17017 0.22831-0.26101 0.13746zm2.3226-2.3205c-0.07204-0.0117-0.20062-0.0553-0.28575-0.0969l-0.15478-0.0756-0.12261-0.12259c-0.27029-0.27026-0.37669-0.6569-0.28142-1.0227 0.05215-0.20024 0.14171-0.35095 0.29597-0.49809 0.15135-0.14437 0.30925-0.23199 0.49834-0.27655l0.12835-0.0302 0.37627 0.0258 0.3567 0.1694 0.12583 0.12584 0.12583 0.12585 0.0818 0.16619 0.08181 0.16618v0.5725l-0.07624 0.16094-0.07623 0.16094-0.12086 0.12779c-0.24104 0.25486-0.60522 0.37761-0.95302 0.32123zm0.29828-0.26106c0.26439-0.0489 0.48536-0.21198 0.61006-0.45031l0.05607-0.10715v-0.47625l-0.05527-0.10358c-0.08022-0.15031-0.2347-0.30813-0.3724-0.38041l-0.12002-0.063-0.45244-7e-4 -0.10896 0.0537c-0.05992 0.0295-0.15324 0.0916-0.20736 0.13792l-0.0984 0.0842-0.07839 0.15924-0.07839 0.15923 1.9e-5 0.19101 2e-5 0.19099 0.06273 0.13383c0.11835 0.25248 0.32832 0.41928 0.59315 0.47119 0.05835 0.0114 0.10679 0.022 0.10766 0.0234 8.58e-4 2e-3 0.06473-9e-3 0.14192-0.0233zm-0.67894-0.85449-0.02515-0.047 0.0566-0.2248 0.19794-0.198 0.11032-0.0421 0.11033-0.0421 0.05793 0.0146c0.12587 0.0316 0.09491 0.16016-0.04973 0.2065-0.04921 0.0157-0.12386 0.0544-0.16588 0.0857l-0.07639 0.0571-0.01601 0.0888c-0.02029 0.11262-0.04897 0.14837-0.11903 0.14837h-0.05577z" stroke-width="192"/>
  <g transform="matrix(.26458 0 0 .26458 17.284 .52605)" aria-label="π">
   <path d="m345.9 467.32q0 17.167-2.125 23.458-1.0833 3.3333-2.7917 4.7083-1.7083 1.3333-4.0417 1.3333-2.5417 0-3.8333-1.1667-1.375-1.0417-1.9583-2.75-0.5-1.7083-0.58334-3.75-0.0833-1.9583-0.16666-3.9167h2.125q0 1.5417 0.83333 3.25 0.875 1.7917 2.6667 1.875 4.0833-0.0833 5.7917-7.0833 1.5417-6.8333 1.5417-18.333v-2.5833h-4.5417q-2.4583 0-3.75 1.2083-1.3333 1.1667-1.7917 3.0833h-2.125q0.5-2.8333 1.2083-4.9583 0.75-2.0417 2.125-3.3333 1.4583-1.2917 4.0833-1.9583 2.5833-0.5 6.5833-0.5 15.083 0.25 26.208 0.66667 1.875 0 2.625-0.875 0.625-0.66667 0.70834-1.5h1.7083q-0.125 4.8333-1.7917 6.5417-1.625 1.7083-4.9583 1.625h-4.375v25.167q-0.16666 6.0833 3.75 6.1667 1.5417 0 2.5-1.2083 0.91667-1.125 1.4583-2.625 0.83334-3.5 0.83334-6.8333h2.125q0 2.0417-0.16667 4.4167-0.33333 2.3333-1.2917 4.4583-0.83333 2.0417-2.7917 3.4167-1.875 1.4167-5.125 1.5-2.5417 0-4.1667-0.91667-1.7083-0.95833-2.75-2.375-1.9583-3.1667-1.875-6.8333v-24.333h-11.875z"/>
  </g>
  <g transform="matrix(.26458 0 0 .26458 -9.1993 48.672)" aria-label="∫">
   <path d="m353.94 431.15q3.4583 0 5.375 0.75v6.2083q-2.4583-1-4.7917-1-7.0833 0-7.0833 9.7083v54.458q0 7.5-3.5 11.333-3.5 3.875-10.375 3.875-3.2917 0-5.8333-0.875v-6.125q2.5417 1 5.125 1 7.3333 0 7.3333-9.7083v-54.458q0-15.167 13.75-15.167z"/>
  </g>
  <g transform="matrix(.22914 -.13229 .13229 .22914 -54.29 147.75)" aria-label="TARSIA">
   <path d="m444.42 407.35h-7.552v19.584h-3.2v-19.584h-7.552v-2.816h18.304z"/>
   <path d="m457.51 421.08h-8.864l-2.368 5.856h-3.136l9.216-22.72h1.664l9.248 22.72h-3.328zm-7.904-2.688h6.976l-2.592-6.368-0.864-3.424h-0.064l-0.864 3.488z"/>
   <path d="m466.38 404.76q0.672-0.128 1.472-0.224 0.832-0.096 1.664-0.16t1.664-0.096 1.568-0.032q1.6 0 3.072 0.32 1.504 0.32 2.624 1.056 1.152 0.736 1.824 1.92 0.704 1.184 0.704 2.912 0 1.344-0.416 2.432t-1.152 1.92-1.76 1.408q-0.992 0.544-2.176 0.832l1.664 1.12 6.016 8.768h-3.68l-6.656-9.44-3.232-0.448v9.888h-3.2zm6.464 2.24q-0.448 0-0.928 0-0.448 0-0.896 0.032t-0.832 0.064-0.608 0.096v7.744h2.624q1.152 0 2.112-0.224 0.992-0.256 1.696-0.736 0.736-0.512 1.152-1.312t0.416-1.952q0-1.728-1.216-2.72t-3.52-0.992z"/>
   <path d="m498.28 421.05q0-1.312-0.864-2.08t-2.176-1.312q-1.312-0.576-2.816-1.056-1.504-0.512-2.816-1.28t-2.176-1.984-0.864-3.168q0-2.72 1.984-4.384 2.016-1.664 5.728-1.664 2.144 0 3.936 0.32t2.816 0.832l-0.992 2.688q-0.8-0.416-2.4-0.736-1.6-0.352-3.52-0.352-2.176 0-3.264 0.928t-1.088 2.144q0 1.248 0.864 2.016t2.176 1.376q1.312 0.576 2.816 1.12t2.816 1.344 2.176 1.984q0.864 1.152 0.864 2.976 0 1.504-0.576 2.72t-1.664 2.08-2.624 1.344q-1.536 0.448-3.488 0.448-2.624 0-4.448-0.416-1.792-0.384-2.72-0.832l1.056-2.784q0.8 0.416 2.4 0.864 1.632 0.416 3.584 0.416 1.12 0 2.08-0.192 0.96-0.224 1.664-0.64 0.736-0.448 1.12-1.12 0.416-0.672 0.416-1.6z"/>
   <path d="m507.78 406.65h-2.56v-2.112h8.32v2.112h-2.56v18.176h2.56v2.112h-8.32v-2.112h2.56z"/>
   <path d="m530.38 421.08h-8.864l-2.368 5.856h-3.136l9.216-22.72h1.664l9.248 22.72h-3.328zm-7.904-2.688h6.976l-2.592-6.368-0.864-3.424h-0.064l-0.864 3.488z"/>
  </g>
  <g transform="matrix(.26458 0 0 .26458 28.834 27.82)" aria-label="ϴ">
   <path d="m388.77 465.44q0 14.625-7.4167 23-7.375 8.375-20.667 8.375-13.458 0-20.833-8.2083-7.3333-8.25-7.3333-23.25 0-14.875 7.2917-23.042 7.3333-8.2083 20.958-8.2083 13.25 0 20.625 8.3333 7.375 8.2917 7.375 23zm-28.083 24.75q9.25 0 14.292-5.5417 5.0833-5.5833 5.5833-16.417h-39.833q0.54166 10.833 5.5833 16.417 5.0833 5.5417 14.375 5.5417zm0.0833-49.333q-9.0833 0-14.167 5.25-5.0833 5.2083-5.875 15.5h39.75q-0.79167-10.333-5.7917-15.542-4.9583-5.2083-13.917-5.2083z"/>
  </g>
  <g transform="matrix(.26458 0 0 .26458 77.373 112.1)" aria-label="x">
   <path d="m-73.105 171.68 0.89062-4.6875q0.1875-1.5 0.28125-3.5625l1.8281-0.32813 1.0781 2.7188q1.2656 0.79688 2.25 0.79688 1.6406 0 2.9062-0.79688 2.1562-1.3125 5.25-5.3438 1.5938-2.0625 6-9.1875-1.9688-13.734-4.2656-17.297-1.125-1.7344-3.0938-1.7344-1.3594 0-2.5781 0.60938-1.1719 0.5625-3.1875 2.6719l-1.2188 1.2188-1.6875-0.98437 5.625-8.0156q1.2188-0.84375 2.5781-1.2188 1.4062-0.42187 2.9531-0.42187 4.5938 0 6.9375 4.1719 1.7344 3.0938 2.8125 13.125l5.25-7.9219q2.3438-3.4219 5.0156-6.0469 1.9688-1.9688 3.6094-2.6719 1.6406-0.75 3.0469-0.75 1.4531 0 2.9062 0.79687-0.79688 3.7969-1.4531 8.1562l-1.2656 0.28125q-0.70312-1.2656-1.3594-1.6875-0.60938-0.42187-1.6406-0.42187-1.5469 0-2.9531 0.75-1.9219 1.0781-4.2188 3.75-1.5 1.7344-6.2812 8.5781 1.5938 9.6094 2.3438 12.703 1.2656 5.0156 2.9062 6.75 1.0312 1.0781 2.3438 1.0781t2.7188-0.75q1.4531-0.79687 4.6406-3.6562l1.0781 1.6875q-5.8125 5.5312-9.4219 7.7344-1.7344 1.0781-3.4688 1.0781-3.0469 0-4.8281-3.7031-1.7812-3.7031-3.1875-14.625-7.7344 12.891-12.094 16.453-2.3906 1.9688-5.2031 1.9688-2.2031 0-3.8438-1.2656z"/>
  </g>
 </g>
</svg>